<svg id="Groupe_24" data-name="Groupe 24" xmlns="http://www.w3.org/2000/svg" xmlns:xlink="http://www.w3.org/1999/xlink" width="90" height="89.606" viewBox="0 0 90 89.606">
  <defs>
    <clipPath id="clip-path">
      <rect id="Rectangle_11" data-name="Rectangle 11" width="90" height="89.606" fill="none"/>
    </clipPath>
  </defs>
  <g id="Groupe_23" data-name="Groupe 23" clip-path="url(#clip-path)">
    <path id="Tracé_61" data-name="Tracé 61" d="M65.442,87.567h17.47l-1,1.314H65.365V97H81.6l-.928,1.314H65.442c.541,16.079,2.782,21.259,10.9,21.259,6.957,0,10.9-5.411,10.9-12.06h1.314v10.281c-3.092,2.319-6.416,3.092-12.214,3.092-14.688,0-20.33-10.2-21.8-22.572H46.657L47.585,97h6.8a39.3,39.3,0,0,1-.232-4.019c0-1,.077-2.551.232-4.1H46.657l.928-1.314h6.958c1.546-12.291,7.112-22.495,21.8-22.495,6.494,0,9.122.773,12.214,3.092V78.445H87.241c0-6.648-3.71-12.06-10.9-12.06C68.224,66.386,65.983,71.488,65.442,87.567Z" transform="translate(-22.611 -31.536)" fill="none" stroke="#000" stroke-width="1"/>
    <path id="Tracé_62" data-name="Tracé 62" d="M149.8,40.073l6.079.979-.423.4-5.756-.927-.23,1.426-.225,1.4,5.648.91-.4.405-5.3-.854c-.713,5.625-.224,7.553,2.6,8.008,2.421.39,4.1-1.272,4.468-3.585l.458.074-.577,3.578a6.509,6.509,0,0,1-4.423.391c-5.111-.824-6.5-4.69-6.32-9.076l-2.743-.442.4-.405,2.367.381a13.871,13.871,0,0,1,.144-1.412c.057-.35.17-.883.311-1.413l-2.69-.433.4-.405,2.421.39c1.227-4.19,3.736-7.429,8.846-6.605,2.259.364,3.13.78,4.077,1.761l-.577,3.578-.457-.074c.373-2.314-.615-4.4-3.116-4.807C151.958,32.859,150.892,34.509,149.8,40.073Z" transform="translate(-69.139 -15.861)" fill="none" stroke="#000" stroke-width="0.75"/>
    <path id="Tracé_63" data-name="Tracé 63" d="M8.454,17.451l7.9-5.072-.008.986-7.479,4.8,1.39,2.166,1.364,2.125,7.339-4.713.027.964L12.1,23.131c5.7,8.342,8.473,10.43,12.143,8.073,3.146-2.02,3.092-6.025.835-9.539l.594-.381,3.49,5.435c-.611,2.124-1.851,3.5-4.472,5.181-6.641,4.263-12.655.508-17.518-5.6L3.608,28.584l-.027-.964,3.076-1.975c-.516-.65-1.128-1.527-1.469-2.058S4.357,22.216,3.9,21.354L.407,23.6.38,22.634l3.146-2.019C.053,13.669-.894,6.659,5.747,2.4,8.683.511,10.133.156,12.319.485l3.49,5.435-.594.381C12.958,2.786,9.443,1,6.193,3.091,2.523,5.447,3.241,8.794,8.454,17.451Z" transform="translate(-0.184 -0.182)" fill="none" stroke="#000" stroke-width="0.75"/>
  </g>
</svg>
