<svg id="Logo_DDM" data-name="Logo DDM" xmlns="http://www.w3.org/2000/svg" width="128.163" height="40" viewBox="0 0 128.163 40">
  <path id="Tracé_1" data-name="Tracé 1" d="M.25.25H127.278V39.115H.25Z" transform="translate(0.318 0.318)" fill="#e30d22"/>
  <g id="Groupe_1" data-name="Groupe 1">
    <path id="Tracé_2" data-name="Tracé 2" d="M127.063,1.1V38.9H1.1V1.1Zm1.1-1.1H0V40H128.163Z" fill="#fff"/>
    <path id="Tracé_3" data-name="Tracé 3" d="M13.8,25.04H2.93v-.728h.409c.658,0,.908-.342.908-1.241V6.164c0-.92-.25-1.177-.908-1.263H2.93V4.11H9.741v.749H9.31c-.726.128-1.226.342-1.226,1.263V23.649c0,.385,0,.621.545.621,1.862,0,4.041-2.568,4.541-5.65h.817Z" transform="translate(3.722 5.221)" fill="#fff"/>
    <path id="Tracé_4" data-name="Tracé 4" d="M16.207,25.028V24.3h.318c.7-.193.976-.621.749-1.5l-.976-3.6H11.758l-.84,3.445c-.182.792,0,1.562.976,1.669h.477v.728H7.83v-.728l.454-.107a2.048,2.048,0,0,0,1.453-1.626L14.278,4.12h1.476l5.29,19a1.277,1.277,0,0,0,1.112,1.091h.272v.728Zm-2.27-14.467-1.884,7.533H15.98Z" transform="translate(9.946 5.234)" fill="#fff"/>
    <path id="Tracé_5" data-name="Tracé 5" d="M27.03,22.3a6.731,6.731,0,0,1-6.039,2.739H15.27v-.728H15.7c.636,0,1.067-.342,1.067-1.241V6.167c0-.92-.431-1.177-1.067-1.263H15.27V4.112h5.7A7.013,7.013,0,0,1,26.3,6.253a12.335,12.335,0,0,1,2.838,8.967A12.136,12.136,0,0,1,27.03,22.3ZM21.581,4.861c-.59,0-1.067.3-1.067.835V23.353c0,.728.363.984,1.294.984a3.056,3.056,0,0,0,2.27-.792c1.044-.963,1.294-3.339,1.294-8.39-.114-8.176-.817-10.294-3.791-10.294Z" transform="translate(18.201 5.218)" fill="#fff"/>
    <path id="Tracé_6" data-name="Tracé 6" d="M33.482,28.562H21.2V27.79h.431c.636,0,.885-.363.885-1.317V8.538c0-.976-.25-1.249-.885-1.339H21.2v-.84H33.482l.159,6.152h-.863c-.908-3.11-1.952-5.4-5.312-5.4-.681,0-1.181.3-1.181,1.249v8.4H26.6a3.133,3.133,0,0,0,2.679-2.565l.3-1.271h.931V22h-.931l-.431-1.725C28.76,18.55,27.738,17.46,26.6,17.46h-.318v9.081c0,.84.568,1.2,1.408,1.2a5.131,5.131,0,0,0,4.7-4.018l.568-1.748h.908Zm-5.4-24.2L25.4,5.587l-.363-.477,3.042-2.77,1.476,1.339" transform="translate(25.287 2.972)" fill="#fff"/>
    <path id="Tracé_7" data-name="Tracé 7" d="M37.012,14.4a9.56,9.56,0,0,1-4.268.792h-.681v7.832c0,.9.454,1.134,1.2,1.241H33.7v.728H27v-.728h.409c.658,0,.908-.342.908-1.241V6.185c0-.92-.25-1.177-.908-1.263H27V4.13h6.629a5.976,5.976,0,0,1,4.527,1.354,5.276,5.276,0,0,1,1.9,4.1A5,5,0,0,1,37.012,14.4ZM35.173,5.586a2.682,2.682,0,0,0-2.089-.706c-.431,0-1.022,0-1.022.471v9.116h.681a2.919,2.919,0,0,0,2.565-1.027,6.107,6.107,0,0,0,.772-3.852,6.119,6.119,0,0,0-.908-4Z" transform="translate(32.199 5.198)" fill="#fff"/>
    <path id="Tracé_8" data-name="Tracé 8" d="M44.936,28.562H32.54V27.79h.431c.636,0,.908-.363.908-1.317V8.538c0-.976-.272-1.249-.908-1.339H32.54v-.84h12.4v6.152h-.863c-.908-3.11-1.952-5.4-5.312-5.4-.658,0-1.181.3-1.181,1.249v8.4H37.9a3.133,3.133,0,0,0,2.724-2.565l.3-1.271h.931V22h-.931L40.4,20.207c-.3-1.657-1.317-2.747-2.452-2.747h-.318v9.081c0,.84.568,1.2,1.408,1.2a5.131,5.131,0,0,0,4.7-4.018l.568-1.748h.908ZM42.121,5.587l-2.7-1.226L36.74,5.587,36.4,5.11l3.019-2.77,3.042,2.77Z" transform="translate(38.814 2.972)" fill="#fff"/>
    <path id="Tracé_9" data-name="Tracé 9" d="M47.182,24.938a4.494,4.494,0,0,1-2.157.514,5.686,5.686,0,0,1-4.132-1.929,13.1,13.1,0,0,1-2.656-8.808c0-6,2.27-9.086,4.268-10.158A4.367,4.367,0,0,1,44.662,4a4.134,4.134,0,0,1,2.111.514,2.012,2.012,0,0,0,.795.236c.272,0,.613-.214,1.112-.75h.7l.25,6.429H48.7L47.386,7.215c-.658-1.586-1.181-2.55-2.27-2.55a1.8,1.8,0,0,0-1.657,1.222,24.59,24.59,0,0,0-1.181,8.829,20.588,20.588,0,0,0,1.294,8.872,2.131,2.131,0,0,0,1.839,1.05c1.521,0,3.746-1.286,3.587-5.529h.772c.091,3.515-.976,4.993-2.588,5.829Z" transform="translate(45.6 5.08)" fill="#fff"/>
    <path id="Tracé_10" data-name="Tracé 10" d="M51.19,25.04v-.728h.431c.636,0,.908-.342.908-1.241V14.789H48.465v8.218c0,.9.25,1.156.885,1.241h.431v.728h-6.4v-.728h.431c.636,0,.885-.342.885-1.241V6.164c0-.92-.25-1.177-.885-1.263H43.38V4.11h6.4v.749h-.431c-.636,0-.885.342-.885,1.263v7.49h4.064V6.164c0-.92-.272-1.177-.908-1.263H51.19V4.11h6.4v.749h-.409c-.658,0-.908.342-.908,1.263V22.964c0,.9.25,1.156.908,1.241h.409v.728Z" transform="translate(51.024 5.221)" fill="#fff"/>
    <path id="Tracé_11" data-name="Tracé 11" d="M62.16,25.04H49.9v-.728h.409c.658,0,.908-.342.908-1.241V6.164c0-.92-.25-1.177-.908-1.263H49.9V4.11H62.16l.182,5.8h-.885c-.908-2.932-1.93-5.093-5.29-5.093a1.052,1.052,0,0,0-1.2,1.177v7.918h.318a3.058,3.058,0,0,0,2.679-2.418l.3-1.2h.954v8.56h-.931l-.409-1.626c-.409-1.626-1.453-2.654-2.588-2.654h-.318v8.56c0,.792.59,1.134,1.43,1.134a5.027,5.027,0,0,0,4.677-3.788l.59-1.648h.885Z" transform="translate(59.306 5.221)" fill="#fff"/>
    <path id="Tracé_12" data-name="Tracé 12" d="M23.832,17.307H22.72V14.583h1.067a1.2,1.2,0,0,1,1,.386,1.362,1.362,0,0,1,.363.976,1.271,1.271,0,0,1-1.317,1.362Zm0-2.111h-.227v1.476h.227c.363,0,.5-.431.5-.726s-.159-.749-.545-.749Z" transform="translate(27.239 17.244)" fill="#fff"/>
    <path id="Tracé_13" data-name="Tracé 13" d="M27.044,17.077a1.271,1.271,0,0,1-.863.272,1.362,1.362,0,0,1-.885-.272.772.772,0,0,1-.3-.636V14.58h.863v1.748c0,.25,0,.386.341.386a.341.341,0,0,0,.386-.386V14.58h.681V16.4A.863.863,0,0,1,27.044,17.077Z" transform="translate(29.975 17.247)" fill="#fff"/>
    <path id="Tracé_14" data-name="Tracé 14" d="M31.009,17.3V15.352l-.5,1.952h-.522l-.522-1.952V17.3H28.83V14.58h1.09l.409,1.453.363-1.453H31.8V17.3Z" transform="translate(34.556 17.247)" fill="#fff"/>
    <path id="Tracé_15" data-name="Tracé 15" d="M31.43,17.3V14.58h.84V17.3Z" transform="translate(37.709 17.247)" fill="#fff"/>
    <path id="Tracé_16" data-name="Tracé 16" d="M34.212,17.308H33.1V14.583h1.044a1.226,1.226,0,0,1,1.022.386,1.362,1.362,0,0,1,.363.976,1.294,1.294,0,0,1-1.317,1.362Zm0-2.111h-.2v1.476h.2c.386,0,.5-.431.5-.726s-.182-.749-.568-.749Z" transform="translate(39.684 17.243)" fill="#fff"/>
    <path id="Tracé_17" data-name="Tracé 17" d="M35.41,17.3V14.58h.84V17.3Z" transform="translate(42.484 17.247)" fill="#fff"/>
  </g>
</svg>
