<svg xmlns="http://www.w3.org/2000/svg" width="156.803" height="44.839" viewBox="0 0 156.803 44.839">
  <g id="logo-pb-large" transform="translate(-4 -4)">
    <g id="Groupe_46" data-name="Groupe 46" transform="translate(4 4)">
      <g id="Groupe_45" data-name="Groupe 45">
        <rect id="Rectangle_50" data-name="Rectangle 50" width="156.803" height="44.839" fill="#fff"/>
      </g>
    </g>
    <g id="Groupe_47" data-name="Groupe 47" transform="translate(9.336 13.697)">
      <path id="Tracé_49" data-name="Tracé 49" d="M239.633,45.465l-1.015,2.894h1.616a.273.273,0,0,1,.263.413l-.338.94a.435.435,0,0,1-.263.188h-1.842L236.1,55.049l-1.466,3.909a4.38,4.38,0,0,0-.226.564,3.49,3.49,0,0,0-.15.489.35.35,0,0,0,0,.226h.113a1.358,1.358,0,0,0,1.052-.564l.075-.075a6.744,6.744,0,0,0,.752-1.278.037.037,0,0,1,.038-.038.3.3,0,0,1,.338-.113l.714.188a.294.294,0,0,1,.188.413,10.952,10.952,0,0,1-1.015,1.541,5.582,5.582,0,0,1-4.623,2.293c-1.24,0-1.992-.338-2.142-1.128a2.724,2.724,0,0,1,.075-1.09c.113-.376.263-.789.413-1.2l2.856-7.7.639-1.654h-1.2a.273.273,0,0,1-.263-.413l.338-.94a.435.435,0,0,1,.263-.188H234.3l.6-1.654c.639-1.579-1.428-1.165-1.165-1.8a.435.435,0,0,1,.263-.188h1.842c1.24,0,2.556-.338,3.758-.338a.273.273,0,0,1,.263.413Z" transform="translate(-150.218 -38.85)" fill="#009ee0"/>
      <path id="Tracé_50" data-name="Tracé 50" d="M18.5,53.914a.273.273,0,0,1-.263-.413c.15-.413,1.879-.226,2.593-2.1.789-2.18,6.615-17.89,6.615-17.89.489-1.616-1.391-1.917-1.24-2.217a.227.227,0,0,1,.263-.188h8.945c.226,0,.376.113.3.3-.113.226-2.518.413-3.157,2.1L25.565,52.3l2.932.075c2.819,0,4.435-1.616,6.465-4.811a.471.471,0,0,1,.413-.226c.113.038.188.188.113.413l-2.405,5.938a.435.435,0,0,1-.263.188l-14.32.038Z" transform="translate(-18.198 -30.611)" fill="#009ee0" fill-rule="evenodd"/>
      <path id="Tracé_51" data-name="Tracé 51" d="M70.428,61.829l-1.391,3.8c-.6,1.579-.15,1.917,1.015,1.917,1.954,0,4.022-1.2,5.563-3.758a.3.3,0,0,1,.376-.113l.526.263a.3.3,0,0,1,.113.413c-1.879,3.157-4.473,4.623-7.1,4.623-3.533,0-5.75-2.556-4.022-7.254,1.729-4.623,5.938-7.216,9.133-7.216,2.894,0,4.473,2.856,3.157,6.465a1.162,1.162,0,0,1-.9.789,2.312,2.312,0,0,1-.489.038H70.428Zm3.42-1.466,1.278-3.383c.225-.6.113-1.015-1.052-1.015a1.89,1.89,0,0,0-1.917,1.353l-1.165,3.044Z" transform="translate(-47.351 -45.217)" fill="#009ee0" fill-rule="evenodd"/>
      <path id="Tracé_52" data-name="Tracé 52" d="M157.728,61.829l-1.391,3.8c-.6,1.579-.15,1.917,1.015,1.917,1.954,0,4.022-1.2,5.563-3.758a.3.3,0,0,1,.376-.113l.526.263a.3.3,0,0,1,.113.413c-1.879,3.157-4.473,4.623-7.1,4.623-3.533,0-5.75-2.556-4.022-7.254,1.729-4.623,5.938-7.216,9.133-7.216,2.894,0,4.473,2.856,3.157,6.465a1.162,1.162,0,0,1-.9.789,2.313,2.313,0,0,1-.489.038h-5.976v.038Zm3.42-1.466,1.278-3.383c.225-.6.113-1.015-1.052-1.015a1.89,1.89,0,0,0-1.917,1.353l-1.165,3.044Z" transform="translate(-101.839 -45.217)" fill="#009ee0" fill-rule="evenodd"/>
      <path id="Tracé_53" data-name="Tracé 53" d="M337.828,61.829l-1.391,3.8c-.6,1.579-.15,1.917,1.015,1.917,1.954,0,4.022-1.2,5.563-3.758a.3.3,0,0,1,.376-.113l.526.263a.3.3,0,0,1,.113.413c-1.879,3.157-4.473,4.623-7.1,4.623-3.533,0-5.75-2.556-4.022-7.254,1.729-4.623,5.938-7.216,9.133-7.216,2.894,0,4.473,2.856,3.157,6.465a1.162,1.162,0,0,1-.9.789,2.312,2.312,0,0,1-.489.038h-5.976Zm3.383-1.466,1.278-3.383c.225-.6.113-1.015-1.052-1.015a1.89,1.89,0,0,0-1.917,1.353l-1.165,3.044Z" transform="translate(-214.249 -45.217)" fill="#009ee0" fill-rule="evenodd"/>
      <path id="Tracé_54" data-name="Tracé 54" d="M317.414,32.281c.677-1.842-1.353-1.353-1.09-1.954a.435.435,0,0,1,.263-.188h1.842c1.24,0,2.631-.338,3.834-.338a.273.273,0,0,1,.263.413L315.2,49.945c-.075.15-.15.376-.226.564a3.493,3.493,0,0,0-.15.489.35.35,0,0,0,0,.226h.113a1.358,1.358,0,0,0,1.052-.564,11.237,11.237,0,0,0,.864-1.391.3.3,0,0,1,.338-.15l.714.188a.294.294,0,0,1,.188.413c-1.5,2.781-3.383,3.8-5.6,3.8-1.24,0-1.992-.338-2.142-1.128a2.724,2.724,0,0,1,.075-1.09c.113-.376.263-.789.413-1.2l.639-1.691Z" transform="translate(-200.525 -29.8)" fill="#009ee0"/>
      <path id="Tracé_55" data-name="Tracé 55" d="M371.616,67.153a6.227,6.227,0,0,1-4.4,1.879c-1.691,0-2.556-.489-2.631-1.616a5.1,5.1,0,0,1,.263-1.729c.188-.639.489-1.391.789-2.218l.752-2.03,1.691-4.585c.639-1.691-1.391-1.278-1.128-1.917a.435.435,0,0,1,.263-.188h1.842c1.24,0,2.518-.15,3.721-.15a.291.291,0,0,1,.3.413l-3.458,9.321c-.188.451-.338.864-.489,1.278a7.5,7.5,0,0,0-.263.94c-.075.451,0,.564.376.564,1.24,0,3.157-2.255,3.646-3.307l.489-1.353,2.1-5.638c.564-1.616-1.391-1.2-1.165-1.842a.435.435,0,0,1,.263-.188h1.842c1.24,0,2.481-.15,3.721-.15a.273.273,0,0,1,.263.413l-2.744,7.367-.789,2.18-.639,1.729c0,.038-.038.113-.038.15a.35.35,0,0,0,0,.226h.113a1.358,1.358,0,0,0,1.052-.564,11.237,11.237,0,0,0,.864-1.391.3.3,0,0,1,.338-.15l.714.188a.294.294,0,0,1,.188.413c-1.5,2.781-3.383,3.8-5.6,3.8a1.878,1.878,0,0,1-1.954-1.616,1.829,1.829,0,0,1-.038-.451Z" transform="translate(-234.394 -45.279)" fill="#009ee0"/>
      <path id="Tracé_56" data-name="Tracé 56" d="M120.1,42.488h1.428c2.18,0,3.157-.977,3.946-3.082l1.5-4.059c.9-2.405.376-2.669-1.579-2.669h-1.616ZM121.3,31.1h6.089c4.811,0,5.563,3.345,4.51,6.089-2.067,5.525-7.78,6.916-10.975,6.916h-1.391L116.6,51.847c-.564,1.353,1.954,1.128,1.729,1.879a.435.435,0,0,1-.263.188h-8.607a.291.291,0,0,1-.3-.413c.075-.15.338-.263.714-.338a3.037,3.037,0,0,0,1.691-1.278c1.128-3.044,5.788-15.6,6.916-18.567.3-1.466-1.466-1.729-1.315-2.03a.227.227,0,0,1,.263-.188H121.3Z" transform="translate(-74.959 -30.611)" fill="#009ee0"/>
      <path id="Tracé_57" data-name="Tracé 57" d="M270.535,52.3a2.454,2.454,0,0,0,2.217-1.466,11.789,11.789,0,0,0,.714-1.541c.225-.564.413-1.2.639-1.766,1.5-4.059,1.579-4.7-1.8-4.7h-.94L267.829,52.3Zm1.428-11.05h.714c2.631,0,3.345-.3,4.961-4.7.752-2.03,1.052-2.969.94-3.42-.038-.15-.15-.263-.413-.338a6.717,6.717,0,0,0-1.466-.113h-1.541Zm4.7.714c2.255.564,4.247,2.293,2.932,5.9a9.664,9.664,0,0,1-4.886,5.149,10.741,10.741,0,0,1-4.961.9h-8.983a.291.291,0,0,1-.3-.413c.15-.413,1.879-.226,2.593-2.1.789-2.18,6.615-17.89,6.615-17.89.489-1.616-1.391-1.917-1.24-2.217a.227.227,0,0,1,.263-.188h10.148c2.405,0,5.3,1.5,4.1,5.262C282.186,38.73,280.307,40.834,276.661,41.962Z" transform="translate(-169.394 -30.611)" fill="#009ee0"/>
      <path id="Tracé_58" data-name="Tracé 58" d="M194.733,45.465l-1.015,2.894h1.616a.273.273,0,0,1,.263.413l-.338.94A.435.435,0,0,1,195,49.9h-1.842L191.2,55.049l-1.466,3.909a4.375,4.375,0,0,0-.226.564,3.494,3.494,0,0,0-.15.489.35.35,0,0,0,0,.226h.113a1.358,1.358,0,0,0,1.052-.564l.075-.075a6.745,6.745,0,0,0,.752-1.278l.038-.038a.3.3,0,0,1,.338-.113l.714.188a.294.294,0,0,1,.188.413,10.953,10.953,0,0,1-1.015,1.541,5.582,5.582,0,0,1-4.623,2.293c-1.24,0-1.992-.338-2.142-1.128a2.724,2.724,0,0,1,.075-1.09c.113-.376.263-.789.413-1.2l2.856-7.7.639-1.654h-1.2a.273.273,0,0,1-.263-.413l.338-.94a.435.435,0,0,1,.263-.188H189.4l.6-1.654c.639-1.579-1.428-1.165-1.165-1.8a.435.435,0,0,1,.263-.188h1.842c1.24,0,2.556-.338,3.758-.338a.273.273,0,0,1,.263.413Z" transform="translate(-122.194 -38.85)" fill="#009ee0"/>
      <path id="Tracé_59" data-name="Tracé 59" d="M212.469,46.131c.639-1.766-1.353-1.315-1.09-1.954a.435.435,0,0,1,.263-.188h1.842c1.24,0,2.481-.15,3.721-.15a.273.273,0,0,1,.263.413L213.6,54.588c-.075.15-.15.376-.226.564a3.491,3.491,0,0,0-.15.489.35.35,0,0,0,0,.226h.113a1.358,1.358,0,0,0,1.052-.564,11.234,11.234,0,0,0,.864-1.391.3.3,0,0,1,.338-.15l.714.188a.294.294,0,0,1,.188.413c-1.5,2.781-3.383,3.8-5.6,3.8-1.24,0-1.992-.338-2.142-1.128a2.724,2.724,0,0,1,.075-1.09c.113-.376.263-.789.413-1.2l.639-1.691Zm6.389-6.089c-.489,1.315-1.879,2.593-3.044,2.593-1.353,0-1.8-1.466-1.315-2.781a3.89,3.89,0,0,1,3.082-2.556C218.9,37.261,219.347,38.689,218.859,40.042Z" transform="translate(-137.111 -34.48)" fill="#009ee0" fill-rule="evenodd"/>
    </g>
  </g>
</svg>
