<?xml version="1.0" encoding="utf-8"?>
<!-- Generator: Adobe Illustrator 26.0.1, SVG Export Plug-In . SVG Version: 6.00 Build 0)  -->
<svg version="1.1" id="Calque_1" xmlns="http://www.w3.org/2000/svg" xmlns:xlink="http://www.w3.org/1999/xlink" x="0px" y="0px"
	 viewBox="0 0 58.2 18.2" style="enable-background:new 0 0 58.2 18.2;" xml:space="preserve">
<style type="text/css">
	.st0{fill:#FFFFFF;}
</style>
<path class="st0" d="M7.7,13.9H2.9v-0.3h0.2c0.3,0,0.4-0.2,0.4-0.6V5.1c0-0.4-0.1-0.6-0.4-0.6H2.9V4.1h3v0.3H5.7
	C5.4,4.5,5.2,4.6,5.2,5v8.2c0,0.2,0,0.3,0.2,0.3c0.8,0,1.8-1.2,2-2.6h0.4L7.7,13.9z"/>
<path class="st0" d="M11.5,13.9v-0.3h0.1c0.3-0.1,0.4-0.3,0.3-0.7l-0.4-1.7h-2l-0.4,1.6c-0.1,0.4,0,0.7,0.4,0.8h0.2v0.3h-2v-0.3
	L8,13.5c0.3-0.1,0.6-0.4,0.6-0.8l2-8.6h0.6l2.3,8.9c0,0.3,0.2,0.5,0.5,0.5h0.1v0.3L11.5,13.9z M10.5,7.1l-0.8,3.5h1.7L10.5,7.1z"/>
<path class="st0" d="M20.5,12.6c-0.6,0.9-1.6,1.4-2.7,1.3h-2.5v-0.3h0.2c0.3,0,0.5-0.2,0.5-0.6V5.1c0-0.4-0.2-0.6-0.5-0.6h-0.2V4.1
	h2.5c0.9,0,1.8,0.3,2.4,1c0.9,1.2,1.4,2.7,1.2,4.2C21.4,10.5,21.1,11.6,20.5,12.6z M18.1,4.5c-0.3,0-0.5,0.1-0.5,0.4v8.3
	c0,0.3,0.2,0.5,0.6,0.5s0.7-0.1,1-0.4c0.5-0.4,0.6-1.6,0.6-3.9C19.7,5.4,19.4,4.5,18.1,4.5z"/>
<path class="st0" d="M26.6,13.9h-5.4v-0.3h0.2c0.3,0,0.4-0.2,0.4-0.6V5.1c0-0.4-0.1-0.6-0.4-0.6h-0.2V4.1h5.4l0.1,2.7h-0.4
	c-0.4-1.4-0.9-2.4-2.3-2.4c-0.3,0-0.5,0.1-0.5,0.6v3.7h0.1c0.6-0.1,1.1-0.5,1.2-1.1L24.9,7h0.4v4h-0.4l-0.2-0.8
	C24.5,9.5,24.1,9,23.6,9h-0.1v4c0,0.4,0.2,0.5,0.6,0.5c1-0.1,1.9-0.8,2.1-1.8l0.2-0.8h0.4L26.6,13.9z M24.2,3.2L23,3.8l-0.2-0.2
	l1.3-1.2L24.7,3"/>
<path class="st0" d="M31.4,8.9c-0.6,0.3-1.2,0.4-1.9,0.4h-0.3V13c0,0.4,0.2,0.5,0.5,0.6H30v0.3h-3v-0.3h0.2c0.3,0,0.4-0.2,0.4-0.6
	V5.1c0-0.4-0.1-0.6-0.4-0.6H27V4.1h2.9c1.4-0.2,2.6,0.8,2.8,2.2c0,0.1,0,0.2,0,0.3C32.8,7.6,32.3,8.5,31.4,8.9z M30.6,4.8
	c-0.2-0.2-0.6-0.4-0.9-0.3c-0.2,0-0.5,0-0.5,0.2V9h0.3c0.4,0,0.9-0.1,1.1-0.5C31,7.9,31.1,7.3,31,6.7C31.1,6,30.9,5.4,30.6,4.8z"/>
<path class="st0" d="M38,13.9h-5.5v-0.3h0.2c0.3,0,0.4-0.2,0.4-0.6V5.1c0-0.4-0.1-0.6-0.4-0.6h-0.2V4.1H38v2.7h-0.4
	c-0.4-1.4-0.9-2.4-2.3-2.4c-0.3,0-0.5,0.1-0.5,0.6v3.7h0.1c0.6-0.1,1.1-0.5,1.2-1.1L36.2,7h0.4v4h-0.4L36,10.2
	C35.9,9.5,35.4,9,34.9,9h-0.1v4c0,0.4,0.2,0.5,0.6,0.5c1-0.1,1.9-0.8,2.1-1.8l0.2-0.8h0.4L38,13.9z M36.8,3.8l-1.2-0.5l-1.2,0.5
	l-0.2-0.2l1.3-1.2l1.3,1.2L36.8,3.8z"/>
<path class="st0" d="M42.2,13.8c-0.3,0.2-0.6,0.2-1,0.2c-0.7,0-1.4-0.4-1.8-0.9c-0.9-1.2-1.3-2.6-1.2-4.1c0-2.8,1-4.2,1.9-4.7
	C40.4,4.1,40.7,4,41,4s0.6,0.1,0.9,0.2c0.1,0.1,0.2,0.1,0.3,0.1s0.3-0.1,0.5-0.3H43l0.1,3h-0.4l-0.6-1.5c-0.3-0.7-0.5-1.2-1-1.2
	c-0.3,0-0.6,0.2-0.7,0.6C40.1,6.2,39.9,7.6,40,9c-0.1,1.4,0.1,2.8,0.6,4.1c0.2,0.3,0.5,0.5,0.8,0.5C42,13.6,43,13,43,11h0.3
	C43.3,12.7,42.9,13.4,42.2,13.8z"/>
<path class="st0" d="M46.8,13.9v-0.3H47c0.3,0,0.4-0.2,0.4-0.6V9.1h-1.8v3.8c0,0.4,0.1,0.5,0.4,0.6h0.2v0.3h-2.8v-0.3h0.2
	c0.3,0,0.4-0.2,0.4-0.6V5.1c0-0.4-0.1-0.6-0.4-0.6h-0.2V4.1h2.8v0.3H46c-0.3,0-0.4,0.2-0.4,0.6v3.5h1.8V5.1c0-0.4-0.1-0.6-0.4-0.6
	h-0.2V4.1h2.8v0.3h-0.2C49.1,4.4,49,4.6,49,5v7.9c0,0.4,0.1,0.5,0.4,0.6h0.2v0.3L46.8,13.9z"/>
<path class="st0" d="M55.3,13.9h-5.4v-0.3h0.2c0.3,0,0.4-0.2,0.4-0.6V5.1c0-0.4-0.1-0.6-0.4-0.6h-0.2V4.1h5.4l0.1,2.7H55
	c-0.4-1.4-0.8-2.4-2.3-2.4c-0.3,0-0.5,0.1-0.5,0.6v3.7h0.1c0.6-0.1,1.1-0.5,1.2-1.1L53.6,7H54v4h-0.4l-0.2-0.8
	C53.2,9.5,52.8,9,52.3,9h-0.1v4c0,0.4,0.3,0.5,0.6,0.5c1-0.1,1.8-0.8,2.1-1.8l0.3-0.8h0.4L55.3,13.9z"/>
<path class="st0" d="M23.2,15.8h-0.5v-1.2h0.5c0.2,0,0.3,0,0.4,0.2c0.1,0.1,0.2,0.3,0.2,0.4C23.8,15.5,23.6,15.8,23.2,15.8
	C23.3,15.8,23.2,15.8,23.2,15.8z M23.2,14.8h-0.1v0.6h0.1c0.2,0,0.2-0.2,0.2-0.3S23.4,14.8,23.2,14.8L23.2,14.8z"/>
<path class="st0" d="M25.9,15.7c-0.1,0.1-0.2,0.1-0.4,0.1c-0.1,0-0.3,0-0.4-0.1C25,15.6,25,15.5,25,15.4v-0.8h0.4v0.8
	c0,0.1,0,0.2,0.1,0.2s0.2,0,0.2-0.1l0,0v-0.8H26v0.8C26,15.5,26,15.6,25.9,15.7z"/>
<path class="st0" d="M29.8,15.8v-0.9l-0.2,0.9h-0.2l-0.2-0.9v0.9h-0.3v-1.2h0.5l0.2,0.6l0.2-0.6h0.5v1.2H29.8z"/>
<path class="st0" d="M31.4,15.8v-1.2h0.4v1.2H31.4z"/>
<path class="st0" d="M33.6,15.8h-0.5v-1.2h0.5c0.2,0,0.3,0,0.5,0.2c0.1,0.1,0.2,0.3,0.2,0.4C34.2,15.5,33.9,15.8,33.6,15.8
	L33.6,15.8z M33.6,14.8L33.6,14.8l-0.1,0.6h0.1c0.2,0,0.2-0.2,0.2-0.3S33.7,14.8,33.6,14.8L33.6,14.8z"/>
<path class="st0" d="M35.4,15.8v-1.2h0.4v1.2H35.4z"/>
</svg>
