<svg id="Groupe_30" data-name="Groupe 30" xmlns="http://www.w3.org/2000/svg" xmlns:xlink="http://www.w3.org/1999/xlink" width="90" height="90" viewBox="0 0 90 90">
  <defs>
    <clipPath id="clip-path">
      <rect id="Rectangle_14" data-name="Rectangle 14" width="90" height="90" fill="none"/>
    </clipPath>
  </defs>
  <g id="Groupe_29" data-name="Groupe 29" clip-path="url(#clip-path)">
    <path id="Tracé_67" data-name="Tracé 67" d="M86.884,41.953A3.353,3.353,0,0,0,83.8,43.979l0,0a22.565,22.565,0,0,1-8.384-14.4v0c.048,0,.094.007.143.007a3.362,3.362,0,1,0-2.016-.679l0,0a43.383,43.383,0,0,1-21.747,9.914,43.386,43.386,0,0,1,9.913-21.747l0,0a3.348,3.348,0,1,0-.678-2.016c0,.048,0,.095.007.143h0a22.565,22.565,0,0,1-14.4-8.385l0,0a3.353,3.353,0,1,0-2.654,0l0,0a22.567,22.567,0,0,1-14.4,8.385h0c0-.048.007-.094.007-.143a3.362,3.362,0,1,0-.678,2.016l0,0a43.389,43.389,0,0,1,9.913,21.747,43.385,43.385,0,0,1-21.747-9.914l0,0a3.348,3.348,0,1,0-2.016.678c.048,0,.095-.005.142-.007v0a22.564,22.564,0,0,1-8.384,14.4l0,0a3.353,3.353,0,1,0,0,2.654l0,0a22.564,22.564,0,0,1,8.384,14.4v0c-.047,0-.094-.007-.142-.007a3.362,3.362,0,1,0,2.016.678l0,0a43.384,43.384,0,0,1,21.747-9.913,43.39,43.39,0,0,1-9.913,21.747l0,0a3.348,3.348,0,1,0,.678,2.016c0-.048-.005-.095-.007-.143h0a22.566,22.566,0,0,1,14.4,8.384l0,0a3.352,3.352,0,1,0,2.654,0l0,0a22.564,22.564,0,0,1,14.4-8.384h0c0,.048-.007.094-.007.143a3.362,3.362,0,1,0,.678-2.016l0,0a43.387,43.387,0,0,1-9.913-21.747,43.382,43.382,0,0,1,21.747,9.913l0,0a3.348,3.348,0,1,0,2.016-.678c-.048,0-.095.005-.143.007v0a22.566,22.566,0,0,1,8.384-14.4l0,0a3.353,3.353,0,1,0,3.079-4.679Zm-14.3,13.49c-7.567-6.378-19.368-7.815-25.269-8.133.318,5.9,1.755,17.7,8.133,25.269a21.88,21.88,0,0,0-10.137,6.38,21.881,21.881,0,0,0-10.137-6.38c6.378-7.567,7.815-19.368,8.133-25.269-5.9.318-17.7,1.755-25.268,8.133a21.884,21.884,0,0,0-6.38-10.137,21.883,21.883,0,0,0,6.38-10.137C25.6,41.546,37.4,42.984,43.3,43.3c-.318-5.9-1.755-17.7-8.133-25.269a21.881,21.881,0,0,0,10.137-6.38,21.88,21.88,0,0,0,10.137,6.38C49.065,25.6,47.628,37.4,47.31,43.3c5.9-.318,17.7-1.755,25.269-8.133a21.878,21.878,0,0,0,6.38,10.137A21.879,21.879,0,0,0,72.579,55.442Z" transform="translate(-0.306 -0.305)" fill="none" stroke="#000" stroke-miterlimit="10" stroke-width="0.75"/>
  </g>
</svg>
