<svg xmlns="http://www.w3.org/2000/svg" xmlns:xlink="http://www.w3.org/1999/xlink" width="90" height="84.311" viewBox="0 0 90 84.311">
  <defs>
    <clipPath id="clip-path">
      <rect id="Rectangle_10" data-name="Rectangle 10" width="90" height="84.311" fill="none"/>
    </clipPath>
  </defs>
  <g id="Groupe_22" data-name="Groupe 22" transform="translate(96 -91)">
    <g id="Groupe_21" data-name="Groupe 21" transform="translate(-96 91)" clip-path="url(#clip-path)">
      <path id="Tracé_59" data-name="Tracé 59" d="M15.845.641,17.17,2.326c-6.861,5.3-8.426,13.121-6.5,13.362a10.634,10.634,0,0,1,6.742,2.889,9.918,9.918,0,0,1,.121,14.084,10.029,10.029,0,0,1-14.086,0c-6.018-6.019-1.563-16.733,2.288-22.511A26.768,26.768,0,0,1,15.845.641Zm30.1,0,1.324,1.685c-6.861,5.3-8.427,13.121-6.5,13.362a10.634,10.634,0,0,1,6.742,2.889,9.916,9.916,0,0,1,.12,14.084,10.027,10.027,0,0,1-14.084,0c-6.019-6.019-1.565-16.733,2.287-22.511A26.775,26.775,0,0,1,45.94.641Z" transform="translate(-0.165 -0.212)" fill="none" stroke="#000" stroke-width="1"/>
      <path id="Tracé_60" data-name="Tracé 60" d="M84.8,122.4l-1.323-1.685c6.861-5.3,8.426-13.121,6.5-13.363a10.627,10.627,0,0,1-6.741-2.888,9.917,9.917,0,0,1-.121-14.084,10.028,10.028,0,0,1,14.085,0c6.019,6.018,1.565,16.733-2.287,22.511A26.768,26.768,0,0,1,84.8,122.4Zm30.1,0-1.324-1.685c6.862-5.3,8.427-13.121,6.5-13.363a10.629,10.629,0,0,1-6.742-2.888,9.916,9.916,0,0,1-.12-14.084,10.027,10.027,0,0,1,14.084,0c6.019,6.018,1.565,16.733-2.287,22.511A26.768,26.768,0,0,1,114.893,122.4Z" transform="translate(-41.895 -40.293)" fill="none" stroke="#000" stroke-width="1"/>
    </g>
  </g>
</svg>
