<svg xmlns="http://www.w3.org/2000/svg" xmlns:xlink="http://www.w3.org/1999/xlink" width="84" height="83" viewBox="0 0 84 83">
  <defs>
    <clipPath id="clip-path">
      <rect id="Rectangle_13" data-name="Rectangle 13" width="84" height="83" transform="translate(-5 -2.486)" fill="none"/>
    </clipPath>
  </defs>
  <g id="Groupe_28" data-name="Groupe 28" transform="translate(4.96 2.96)">
    <g id="Groupe_27" data-name="Groupe 27" transform="translate(0.04 -0.474)" clip-path="url(#clip-path)">
      <path id="Tracé_65" data-name="Tracé 65" d="M79.83,77.533,59.4,56.919A33.984,33.984,0,0,0,34.178.5a33.98,33.98,0,0,0,0,67.958,33.318,33.318,0,0,0,22.243-8.535L76.853,80.536ZM34.178,64.21A29.733,29.733,0,1,1,63.647,34.477,29.633,29.633,0,0,1,34.178,64.21Z" transform="translate(-0.445 -0.47)" fill="none" stroke="#000" stroke-miterlimit="10" stroke-width="1"/>
      <path id="Tracé_66" data-name="Tracé 66" d="M127.511,214.145a16.84,16.84,0,1,0-33.678,0" transform="translate(-76.939 -161.328)" fill="none" stroke="#000" stroke-miterlimit="10" stroke-width="1"/>
      <ellipse id="Ellipse_1" data-name="Ellipse 1" cx="9.622" cy="9.708" rx="9.622" ry="9.708" transform="translate(24.11 13.985)" fill="none" stroke="#000" stroke-miterlimit="10" stroke-width="1"/>
    </g>
  </g>
</svg>
